<svg width="16" height="17" viewBox="0 0 16 17" fill="none" xmlns="http://www.w3.org/2000/svg">
<path d="M7.99331 1.83337C4.31331 1.83337 1.33331 4.82004 1.33331 8.50004C1.33331 12.18 4.31331 15.1667 7.99331 15.1667C11.68 15.1667 14.6666 12.18 14.6666 8.50004C14.6666 4.82004 11.68 1.83337 7.99331 1.83337ZM7.99998 13.8334C5.05331 13.8334 2.66665 11.4467 2.66665 8.50004C2.66665 5.55337 5.05331 3.16671 7.99998 3.16671C10.9466 3.16671 13.3333 5.55337 13.3333 8.50004C13.3333 11.4467 10.9466 13.8334 7.99998 13.8334ZM8.33331 5.16671H7.33331V9.16671L10.8333 11.2667L11.3333 10.4467L8.33331 8.66671V5.16671Z" fill="#00A441"/>
</svg>
